<svg xmlns="http://www.w3.org/2000/svg" width="1600" height="1000" viewBox="0 0 1600 1000" role="img" aria-label="sdkcheck report preview">
  <rect width="1600" height="1000" fill="#101214"/>
  <rect x="110" y="96" width="1380" height="808" rx="8" fill="#f6f3eb"/>
  <rect x="110" y="96" width="1380" height="72" rx="8" fill="#1e2329"/>
  <circle cx="150" cy="132" r="9" fill="#e05b49"/>
  <circle cx="182" cy="132" r="9" fill="#e0a63f"/>
  <circle cx="214" cy="132" r="9" fill="#45a66b"/>
  <text x="250" y="139" fill="#d7dde4" font-family="ui-monospace, SFMono-Regular, Menlo, Consolas, monospace" font-size="20">sdkcheck report: Co-op Translator</text>
  <text x="160" y="230" fill="#15181b" font-family="Inter, Arial, sans-serif" font-size="48" font-weight="700">passed</text>
  <text x="352" y="230" fill="#2f7d55" font-family="ui-monospace, SFMono-Regular, Menlo, Consolas, monospace" font-size="28">classification: none</text>
  <rect x="160" y="280" width="360" height="54" rx="6" fill="#ddebdc"/>
  <text x="184" y="315" fill="#204f36" font-family="ui-monospace, SFMono-Regular, Menlo, Consolas, monospace" font-size="22">backend: docker</text>
  <rect x="544" y="280" width="420" height="54" rx="6" fill="#dce8f2"/>
  <text x="568" y="315" fill="#244b70" font-family="ui-monospace, SFMono-Regular, Menlo, Consolas, monospace" font-size="22">secrets: names only</text>
  <rect x="988" y="280" width="330" height="54" rx="6" fill="#efe4cc"/>
  <text x="1012" y="315" fill="#6b5527" font-family="ui-monospace, SFMono-Regular, Menlo, Consolas, monospace" font-size="22">json: emitted</text>
  <text x="160" y="398" fill="#343a40" font-family="Inter, Arial, sans-serif" font-size="28" font-weight="700">Command Evidence</text>
  <g font-family="ui-monospace, SFMono-Regular, Menlo, Consolas, monospace" font-size="22">
    <rect x="160" y="430" width="1160" height="58" rx="6" fill="#ffffff"/>
    <text x="188" y="467" fill="#2f7d55">PASS</text>
    <text x="270" y="467" fill="#212529">clone Co-op Translator repo</text>
    <text x="1050" y="467" fill="#6c757d">1.2s</text>
    <rect x="160" y="502" width="1160" height="58" rx="6" fill="#ffffff"/>
    <text x="188" y="539" fill="#2f7d55">PASS</text>
    <text x="270" y="539" fill="#212529">install Co-op Translator from PyPI</text>
    <text x="1050" y="539" fill="#6c757d">74.1s</text>
    <rect x="160" y="574" width="1160" height="58" rx="6" fill="#ffffff"/>
    <text x="188" y="611" fill="#2f7d55">PASS</text>
    <text x="270" y="611" fill="#212529">run Markdown translation dry-run</text>
    <text x="1050" y="611" fill="#6c757d">2.9s</text>
    <rect x="160" y="646" width="1160" height="58" rx="6" fill="#ffffff"/>
    <text x="188" y="683" fill="#2f7d55">PASS</text>
    <text x="270" y="683" fill="#212529">review generated translation</text>
    <text x="1050" y="683" fill="#6c757d">1.8s</text>
  </g>
  <rect x="160" y="760" width="1160" height="78" rx="6" fill="#1e2329"/>
  <text x="190" y="808" fill="#d7dde4" font-family="ui-monospace, SFMono-Regular, Menlo, Consolas, monospace" font-size="24">sdkcheck run --recipe co-op-translator --backend docker --fake-openai</text>
</svg>
